<svg id="Capa_1" enable-background="new 0 0 512 512" height="512" viewBox="0 0 512 512" width="512" xmlns="http://www.w3.org/2000/svg"><g><g><path clip-rule="evenodd" d="m67.697 335.808-67.395-187.401c-.968-2.729.469-5.752 3.198-6.749 88.608-31.869 188.454-61.509 273.805-97.927 3.814-2.406 6.807-.029 8.45 4.519l105.89 272.944 28.754 79.967c.968 2.729-.44 5.781-3.169 6.75l-202.625 72.865-78.985 28.407c-2.729.998-5.751-.44-6.748-3.169z" fill="#fff" fill-rule="evenodd"/></g><g><path clip-rule="evenodd" d="m123.884 273.625-33.653-196.264c-.499-2.876 1.438-5.605 4.284-6.104l231.76-39.734 53.077-8.745c2.905-1.262 7.629.205 8.743 6.691l57.331 286.297 14.348 83.753c.499 2.847-1.438 5.605-4.284 6.104l-212.22 36.389-82.74 14.203c-2.846.47-5.604-1.467-6.103-4.314z" fill="#fff" fill-rule="evenodd"/></g><g><path clip-rule="evenodd" d="m188.815 215.755v188.693c0 3.023 2.465 5.517 5.487 5.517h87.581 129.656 18.631 76.344c3.022 0 5.487-2.494 5.487-5.517v-88.653-244.89-2.553h-55.747c-5.369 0-16.519.763-16.519-11.415l-.118-54.437h-245.316c-3.022 0-5.487 2.465-5.487 5.488v47.1 19.926 140.741z" fill="#fff" fill-rule="evenodd"/></g><g><path clip-rule="evenodd" d="m95.805 109.905c-31.394 10.565-62.495 21.041-92.305 31.752-2.729.998-4.166 4.02-3.198 6.749l67.395 187.402 61.175 170.205c.998 2.729 4.02 4.167 6.748 3.169l78.985-28.407 179.975-64.707z" fill="#b5c4cf" fill-rule="evenodd"/></g><g><path clip-rule="evenodd" d="m188.815 55.088-94.3 16.169c-2.846.499-4.783 3.228-4.284 6.104l5.575 32.544 28.079 163.72 30.543 178.275c.499 2.847 3.257 4.783 6.103 4.314l82.74-14.203 151.309-25.942 35.59-6.104h-18.631z" fill="#d7e7ec" fill-rule="evenodd"/></g><g><path clip-rule="evenodd" d="m512 315.795v-244.89-2.553-.851c0-1.585-.675-1.849-3.11-4.226l-60.177-57.4c-2.846-2.7-3.315-3.375-4.988-3.375h-4.108-245.316c-3.022 0-5.487 2.465-5.487 5.488v396.46c0 3.023 2.465 5.517 5.487 5.517h312.212c3.022 0 5.487-2.494 5.487-5.517z" fill="#edf3f4" fill-rule="evenodd"/></g><g><path clip-rule="evenodd" d="m188.815 55.088-22.093 3.786v365.853c0 3.052 2.465 5.517 5.487 5.517h87.581 52.109l82.681-14.174 35.59-6.104h-18.631-22.915-106.741-87.581c-3.022 0-5.487-2.494-5.487-5.517 0-116.445 0-232.918 0-349.361z" fill="#b5c4cf" fill-rule="evenodd"/></g><g><path clip-rule="evenodd" d="m123.884 273.625-28.079-163.72c-7.599 2.553-15.169 5.106-22.71 7.659l3.492 20.337 28.079 163.72 30.573 178.275c.469 2.846 3.227 4.783 6.073 4.314l82.74-14.203 39.258-6.72 118.242-42.551-1.408-2.201-68.246 11.709-68.627 11.768-82.74 14.203c-2.846.47-5.604-1.467-6.103-4.314z" fill="#9aafb7" fill-rule="evenodd"/></g><g><path clip-rule="evenodd" d="m512 315.795v-244.89-2.553c0-2.964-.968-2.993-3.11-5.077l-60.177-57.4c-2.846-2.7-3.315-3.375-4.988-3.375h-4.108-61.058c74.613 99.893 78.867 279.958 23.502 392.352-2.553 5.224-5.223 10.242-8.01 15.113h17.487 18.631 76.344c3.022 0 5.487-2.494 5.487-5.517z" fill="#d7e7ec" fill-rule="evenodd"/></g><g><path clip-rule="evenodd" d="m439.734 56.936c0 12.178 11.149 11.415 16.519 11.415h55.747v-.851c0-1.585-.675-1.849-3.11-4.226l-60.177-57.4c-2.846-2.7-3.315-3.375-4.988-3.375h-4.108z" fill="#fff" fill-rule="evenodd"/></g><g><path clip-rule="evenodd" d="m508.89 63.275-60.177-57.4c-2.846-2.7-3.315-3.375-4.988-3.375h-4.108l.117 54.436c0 12.178 11.149 11.415 16.519 11.415h55.747v-.851c0-1.584-.675-1.848-3.11-4.225z" fill="#b5c4cf" fill-rule="evenodd"/></g><g><path d="m462.414 122.506h-220.904c-4.267 0-7.726-3.46-7.726-7.729s3.459-7.729 7.726-7.729h220.904c4.267 0 7.726 3.46 7.726 7.729s-3.458 7.729-7.726 7.729z" fill="#9aafb7"/></g><g><path d="m462.414 177.411h-220.904c-4.267 0-7.726-3.46-7.726-7.729s3.459-7.729 7.726-7.729h220.904c4.267 0 7.726 3.46 7.726 7.729s-3.458 7.729-7.726 7.729z" fill="#9aafb7"/></g><g><path d="m462.414 232.317h-220.904c-4.267 0-7.726-3.46-7.726-7.729s3.459-7.729 7.726-7.729h220.904c4.267 0 7.726 3.46 7.726 7.729s-3.458 7.729-7.726 7.729z" fill="#9aafb7"/></g><g><path d="m462.414 287.223h-220.904c-4.267 0-7.726-3.46-7.726-7.729s3.459-7.729 7.726-7.729h220.904c4.267 0 7.726 3.46 7.726 7.729s-3.458 7.729-7.726 7.729z" fill="#9aafb7"/></g><g><path d="m462.414 342.129h-220.904c-4.267 0-7.726-3.46-7.726-7.729s3.459-7.729 7.726-7.729h220.904c4.267 0 7.726 3.46 7.726 7.729s-3.458 7.729-7.726 7.729z" fill="#9aafb7"/></g></g></svg>